<?xml version="1.0" standalone="no"?>
<!DOCTYPE svg PUBLIC "-//W3C//DTD SVG 20010904//EN"
 "http://www.w3.org/TR/2001/REC-SVG-20010904/DTD/svg10.dtd">
<svg version="1.0" xmlns="http://www.w3.org/2000/svg"
 width="966.000000pt" height="966.000000pt" viewBox="0 0 966.000000 966.000000"
 preserveAspectRatio="xMidYMid meet">
<metadata>
Created by potrace 1.14, written by Peter Selinger 2001-2017
</metadata>
<g transform="translate(0.000000,966.000000) scale(0.100000,-0.100000)"
fill="#000000" stroke="none">
<path d="M530 9635 c0 -37 36 -160 57 -196 24 -42 122 -105 181 -118 72 -15
256 -3 314 21 35 15 51 17 66 9 20 -10 75 1 96 19 16 15 8 76 -20 135 -30 67
-30 65 -20 118 l7 37 -341 0 -340 0 0 -25z"/>
<path d="M9040 9645 c0 -12 13 -15 55 -15 42 0 55 3 55 15 0 12 -13 15 -55 15
-42 0 -55 -3 -55 -15z"/>
<path d="M9200 9635 c0 -16 -6 -25 -15 -25 -8 0 -15 -7 -15 -15 0 -8 7 -15 15
-15 11 0 15 -11 15 -40 0 -29 -4 -40 -15 -40 -22 0 -20 -83 2 -105 15 -16 18
-16 29 -1 10 14 12 14 17 2 9 -24 -5 -159 -19 -188 -20 -40 -17 -66 11 -92 30
-28 36 -96 9 -96 -13 0 -15 -9 -13 -44 3 -30 0 -42 -7 -39 -7 2 -15 0 -19 -6
-3 -6 2 -11 12 -11 24 0 73 -22 73 -33 0 -4 -9 -3 -20 3 -28 15 -25 7 14 -36
22 -24 53 -43 92 -56 32 -11 73 -33 91 -49 19 -16 38 -29 43 -29 17 0 24 -3
69 -32 25 -15 51 -28 58 -28 7 0 13 -4 13 -10 0 -5 5 -10 10 -10 7 0 10 177
10 510 l0 510 -230 0 -230 0 0 -25z m160 -151 c0 -17 -22 -14 -28 4 -2 7 3 12
12 12 9 0 16 -7 16 -16z m-47 -55 c13 -15 17 -34 15 -67 -3 -40 -6 -47 -25
-50 -22 -3 -23 0 -23 67 0 39 3 71 8 71 4 0 16 -9 25 -21z m-33 -179 c0 -5 -2
-10 -4 -10 -3 0 -8 5 -11 10 -3 6 -1 10 4 10 6 0 11 -4 11 -10z m88 -1 c-2 -6
-8 -10 -13 -10 -5 0 -11 4 -13 10 -2 6 4 11 13 11 9 0 15 -5 13 -11z m-88 -85
c0 -17 -22 -14 -28 4 -2 7 3 12 12 12 9 0 16 -7 16 -16z m85 -314 c13 -6 15
-9 5 -9 -8 0 -22 4 -30 9 -18 12 -2 12 25 0z m-40 -10 c3 -5 1 -10 -4 -10 -6
0 -11 5 -11 10 0 6 2 10 4 10 3 0 8 -4 11 -10z"/>
<path d="M6202 9579 c2 -7 10 -15 17 -17 8 -3 12 1 9 9 -2 7 -10 15 -17 17 -8
3 -12 -1 -9 -9z"/>
<path d="M6200 9496 c0 -18 7 -39 15 -46 8 -7 15 -22 15 -34 0 -12 6 -30 14
-41 7 -11 17 -36 21 -55 7 -31 48 -80 68 -80 4 0 7 -9 7 -19 0 -11 4 -22 9
-25 5 -3 19 -38 32 -78 16 -50 32 -80 51 -96 15 -13 28 -29 28 -35 0 -7 16
-29 36 -50 32 -34 39 -37 85 -36 27 1 52 6 55 11 3 4 14 8 24 8 11 0 42 22 69
49 27 27 53 50 58 52 19 9 62 79 87 143 35 86 42 131 26 151 -14 17 -50 20
-50 4 0 -17 -64 -77 -94 -89 -21 -8 -28 -7 -32 5 -3 8 -15 17 -26 21 -16 5
-18 8 -7 15 10 6 7 9 -11 9 -14 0 -44 15 -67 34 -43 34 -75 49 -125 60 -29 7
-38 30 -15 39 7 3 5 6 -5 6 -10 1 -18 9 -19 19 0 10 -3 12 -6 5 -2 -7 -12 -13
-21 -13 -13 0 -14 2 -4 9 11 7 10 10 -3 15 -9 3 -25 6 -34 6 -10 0 -38 16 -62
35 -33 26 -54 35 -81 35 -36 0 -38 -1 -38 -34z m450 -236 c0 -5 -2 -10 -4 -10
-3 0 -8 5 -11 10 -3 6 -1 10 4 10 6 0 11 -4 11 -10z"/>
<path d="M6865 9350 c-3 -5 1 -10 10 -10 9 0 13 5 10 10 -3 6 -8 10 -10 10 -2
0 -7 -4 -10 -10z"/>
<path d="M9130 9180 c-8 -5 -12 -12 -9 -15 4 -3 12 1 19 10 14 17 11 19 -10 5z"/>
<path d="M9185 9110 c-3 -5 -1 -10 4 -10 6 0 11 5 11 10 0 6 -2 10 -4 10 -3 0
-8 -4 -11 -10z"/>
<path d="M1270 9043 c-15 -16 -36 -33 -46 -39 -10 -6 -22 -25 -27 -44 -4 -18
-15 -43 -23 -55 -11 -17 -14 -52 -13 -139 0 -65 -2 -120 -5 -123 -3 -3 -43 -8
-88 -10 -91 -6 -184 -32 -180 -51 1 -6 -2 -12 -8 -12 -5 0 -10 -6 -10 -14 0
-8 -6 -16 -14 -19 -7 -3 -19 -26 -27 -51 -7 -26 -21 -49 -33 -55 -21 -9 -21
-10 2 -10 21 -1 33 -21 11 -21 -5 0 -7 -5 -4 -11 4 -6 -2 -5 -14 3 -12 7 -21
16 -21 19 0 11 -47 16 -64 7 -13 -7 -13 -13 -1 -47 12 -34 11 -40 -3 -53 -10
-9 -26 -27 -37 -41 -11 -13 -26 -22 -34 -19 -7 3 -17 -1 -21 -9 -7 -10 -29
-13 -81 -11 -93 3 -132 -10 -151 -51 -29 -62 -48 -131 -38 -141 6 -6 10 -19
10 -30 0 -12 12 -52 25 -91 14 -38 25 -86 25 -105 0 -38 19 -99 37 -121 6 -8
21 -52 34 -98 15 -59 30 -92 48 -109 14 -13 25 -30 23 -38 -3 -17 97 -172 141
-216 18 -18 46 -44 64 -57 18 -13 42 -38 55 -57 35 -52 139 -93 288 -115 36
-6 79 -16 97 -24 42 -20 69 -19 117 5 45 21 147 112 165 147 6 12 11 48 11 81
0 33 7 76 16 97 16 40 22 225 9 321 -5 39 -3 53 9 63 11 9 16 30 16 63 0 27 4
57 9 66 6 11 5 35 0 62 -5 25 -16 86 -23 136 -8 49 -30 137 -49 195 -19 57
-38 126 -42 153 -3 27 -9 54 -12 61 -6 18 29 28 59 16 16 -6 39 -6 64 1 22 5
55 13 74 16 37 7 100 41 100 54 0 4 6 8 13 8 8 0 24 9 37 20 13 11 31 20 40
20 23 0 50 32 50 58 0 37 -22 71 -52 81 -16 6 -45 26 -65 46 -19 19 -39 35
-43 35 -4 0 -13 13 -20 30 -12 30 -49 60 -73 60 -8 0 -58 43 -112 95 -94 91
-99 95 -142 95 -35 0 -50 -6 -73 -27z"/>
<path d="M9168 8975 c-2 -25 0 -45 4 -45 5 0 8 20 8 45 0 25 -2 45 -4 45 -2 0
-6 -20 -8 -45z"/>
<path d="M9117 8929 c7 -7 15 -10 18 -7 3 3 -2 9 -12 12 -14 6 -15 5 -6 -5z"/>
<path d="M9200 8900 c0 -6 7 -10 15 -10 8 0 15 2 15 4 0 2 -7 6 -15 10 -8 3
-15 1 -15 -4z"/>
<path d="M3730 8874 c0 -5 -13 -17 -29 -27 -15 -9 -34 -30 -41 -47 -7 -16 -16
-30 -21 -30 -5 0 -9 -6 -10 -12 0 -7 -18 -38 -39 -68 -22 -30 -54 -79 -71
-109 -18 -30 -51 -72 -73 -95 -45 -47 -50 -53 -89 -126 -16 -29 -40 -64 -53
-79 -13 -14 -22 -31 -20 -37 2 -6 -11 -25 -30 -43 -18 -18 -36 -42 -40 -53 -3
-11 -19 -39 -35 -63 -16 -24 -29 -48 -29 -54 0 -6 -4 -11 -10 -11 -5 0 -10 -4
-10 -8 0 -12 38 -8 52 6 8 8 9 12 1 12 -6 0 -14 -5 -16 -10 -3 -6 -4 -5 -3 2
1 7 17 17 34 22 18 5 32 13 32 18 0 5 4 6 10 3 14 -9 60 43 83 95 22 49 33 63
61 73 13 5 15 11 8 20 -12 15 -4 35 31 77 21 24 36 33 58 32 21 0 29 4 29 16
0 10 13 33 28 52 16 19 32 48 36 65 4 16 11 32 16 35 5 3 10 29 11 58 2 47 5
52 25 52 19 0 25 8 34 40 6 22 9 44 6 48 -3 5 5 19 17 33 24 25 60 109 52 117
-3 3 -5 1 -5 -4z"/>
<path d="M3829 8175 c-25 -7 -59 -20 -76 -29 -54 -27 -80 -111 -50 -163 72
-127 74 -132 79 -202 5 -62 3 -71 -12 -71 -9 0 -25 -9 -35 -20 -15 -16 -26
-19 -49 -14 -17 3 -28 3 -24 -1 4 -4 1 -14 -7 -22 -11 -10 -13 -26 -9 -54 9
-57 -11 -121 -44 -137 -14 -6 -31 -12 -37 -12 -15 0 -60 -57 -71 -92 -4 -10
-10 -18 -15 -18 -5 0 -9 -24 -9 -54 0 -52 16 -86 41 -86 5 0 9 -30 9 -66 0
-57 -2 -65 -17 -62 -14 2 -19 15 -21 54 -3 49 -5 52 -34 58 -17 3 -45 5 -62 5
-23 -1 -25 -3 -8 -6 21 -4 22 -9 22 -84 0 -82 -2 -86 -48 -80 -10 2 -10 -2 0
-18 11 -18 10 -23 -7 -36 -11 -8 -30 -13 -43 -10 -20 5 -23 3 -17 -15 5 -16 2
-20 -17 -20 -13 -1 -34 -7 -48 -15 -14 -8 -42 -14 -62 -15 -34 0 -42 -7 -40
-31 1 -3 -9 -4 -21 -2 -18 4 -26 -3 -41 -33 -12 -25 -14 -40 -7 -42 11 -4 16
-74 6 -84 -3 -3 -17 -3 -30 0 -22 4 -25 10 -25 43 0 32 -3 39 -20 39 -13 0
-20 7 -20 20 0 17 -7 20 -39 20 -22 0 -42 -4 -45 -9 -3 -5 -22 -12 -41 -15
-25 -5 -35 -12 -35 -25 0 -16 -11 -20 -74 -26 -62 -5 -80 -3 -108 12 l-33 18
70 6 70 5 -79 2 c-67 2 -85 6 -122 30 -42 26 -55 42 -34 42 6 0 10 18 10 40 0
22 -4 40 -10 40 -5 0 -10 -6 -10 -13 0 -7 -6 -21 -14 -32 -12 -17 -15 -15 -38
24 -28 46 -32 45 -63 -26 -10 -24 -28 -49 -40 -57 -34 -22 -68 -82 -60 -106 7
-20 25 -28 25 -10 0 6 5 10 11 10 6 0 9 -7 5 -15 -3 -8 0 -15 6 -15 6 0 9 -3
6 -6 -3 -3 -22 -2 -41 1 -27 5 -34 11 -30 23 4 14 3 15 -5 2 -6 -8 -9 -17 -6
-21 2 -4 -2 -10 -8 -13 -10 -5 -10 -7 0 -12 10 -5 9 -9 -5 -19 -10 -7 -14 -17
-10 -21 4 -5 12 -2 17 6 7 11 9 9 7 -8 -1 -23 -12 -29 -22 -12 -3 5 -12 7 -20
3 -21 -8 -18 3 7 27 12 11 16 20 9 20 -15 0 -41 -25 -41 -40 0 -6 -16 -26 -35
-46 -19 -19 -35 -41 -35 -49 0 -8 -3 -15 -8 -15 -4 0 -16 -16 -26 -35 -11 -19
-22 -35 -26 -35 -4 0 -11 -16 -14 -35 -4 -19 -11 -35 -15 -35 -5 0 -14 -13
-21 -30 -7 -16 -16 -30 -21 -30 -5 0 -14 -11 -19 -25 -5 -14 -14 -25 -19 -25
-5 0 -13 -10 -17 -22 -4 -12 -22 -36 -41 -53 -18 -16 -41 -45 -51 -63 -9 -18
-30 -58 -47 -90 -16 -31 -42 -71 -58 -88 -15 -17 -43 -58 -63 -90 -19 -32 -40
-62 -46 -65 -6 -4 0 -13 13 -23 l24 -17 -25 3 c-18 2 -24 -1 -22 -13 1 -9 -6
-23 -15 -30 -16 -13 -17 -12 -4 4 21 26 6 32 -20 8 -13 -12 -26 -21 -31 -21
-5 0 -18 -21 -31 -47 -12 -26 -32 -57 -45 -69 -12 -12 -22 -25 -22 -30 0 -5
-8 -16 -18 -25 -27 -23 -91 -6 -121 34 -13 18 -43 44 -67 59 -24 15 -44 34
-44 41 0 8 -12 20 -27 26 -16 6 -39 27 -52 46 -13 19 -27 35 -32 35 -5 0 -9 8
-9 18 0 9 -8 22 -19 29 -10 6 -27 37 -36 67 l-18 56 28 26 28 25 -8 102 c-3
56 -8 122 -9 147 -2 25 -10 68 -19 95 -13 42 -27 107 -33 150 0 6 -10 30 -21
55 -11 25 -24 65 -28 89 -5 30 -13 45 -28 51 -18 7 -18 9 -4 9 9 1 17 8 17 17
0 10 -6 14 -14 11 -8 -3 -17 2 -21 11 -6 15 -8 15 -15 -3 -8 -19 -9 -19 -9 3
-1 23 -15 29 -27 11 -3 -6 0 -15 7 -20 11 -7 12 -12 2 -28 -9 -15 -9 -30 2
-72 8 -29 12 -56 9 -60 -2 -4 -18 -2 -34 4 -26 10 -30 16 -26 39 2 16 0 28 -5
28 -10 0 -19 -18 -23 -47 -2 -12 -16 -21 -45 -28 -24 -6 -47 -18 -52 -27 -10
-18 -58 -13 -66 8 -3 8 -11 14 -18 14 -7 0 -16 6 -18 13 -4 10 -6 10 -6 0 -1
-7 -8 -13 -16 -13 -9 0 -18 -12 -21 -30 -4 -16 -13 -35 -20 -41 -8 -7 -14 -31
-14 -60 0 -26 -5 -51 -11 -54 -7 -5 -10 -43 -8 -104 1 -53 -1 -110 -5 -127 -8
-34 14 -104 33 -104 5 0 17 -7 25 -16 15 -14 20 -14 54 4 59 30 106 35 168 17
48 -14 55 -19 52 -38 -4 -25 21 -57 48 -61 11 -2 20 -11 22 -22 2 -10 7 -28
12 -39 5 -11 11 -33 15 -50 18 -85 18 -81 -15 -105 -45 -32 -111 -22 -139 23
-14 22 -21 27 -21 15 0 -10 -7 -18 -15 -18 -8 0 -15 -8 -15 -19 0 -10 -13 -45
-29 -77 -71 -146 -83 -199 -57 -238 9 -14 16 -31 16 -38 0 -7 13 -38 29 -69
16 -30 26 -60 22 -67 -16 -26 -129 -62 -194 -62 -52 0 -71 -5 -101 -25 -20
-14 -43 -25 -50 -25 -17 0 -74 -55 -105 -99 -27 -40 -47 -156 -36 -211 3 -19
8 -63 10 -96 3 -64 15 -110 46 -181 21 -47 103 -119 147 -130 15 -3 38 -14 51
-25 13 -10 31 -18 40 -18 8 0 34 -7 57 -16 51 -19 50 -30 -13 -121 -23 -35
-43 -67 -43 -71 -1 -13 -77 -112 -82 -106 -9 9 -56 -58 -92 -132 -18 -38 -41
-76 -50 -83 -9 -8 -33 -45 -53 -83 -20 -38 -69 -111 -110 -161 -40 -51 -75
-105 -78 -122 -3 -16 -4 -266 -3 -554 l3 -525 70 67 c38 37 72 67 75 67 2 0
26 23 52 50 26 28 51 50 56 50 4 0 14 10 22 21 19 27 32 40 59 59 14 9 19 21
16 35 -3 11 -2 15 1 8 4 -9 12 -6 27 10 12 12 38 33 58 47 50 35 119 98 119
110 0 5 28 35 62 67 137 130 199 197 192 213 -16 39 -15 43 2 24 l18 -22 36
26 c41 31 100 92 100 104 0 4 6 8 13 8 14 1 77 56 77 68 0 5 11 18 25 30 14
12 25 30 25 40 0 10 27 43 60 75 33 31 54 57 45 57 -23 0 -18 13 13 33 23 15
24 17 5 12 -21 -6 -23 -3 -23 39 0 34 4 46 15 46 8 0 15 9 15 21 0 16 -4 19
-20 14 -16 -5 -20 -2 -20 19 0 14 5 26 10 26 6 0 10 16 10 35 0 41 56 140 61
110 4 -18 5 -18 22 -1 11 12 17 33 17 65 0 33 6 56 20 74 11 14 20 35 20 46 0
12 5 21 10 21 6 0 36 24 66 53 30 28 64 55 77 58 13 3 21 12 19 22 -1 9 9 24
23 33 14 9 25 23 25 30 0 8 5 14 10 14 6 0 10 33 10 80 0 79 0 80 25 80 18 0
25 5 25 19 0 10 7 24 15 31 8 7 15 26 15 42 0 34 33 67 68 68 18 0 22 6 22 34
0 18 7 51 16 72 14 33 15 49 5 100 -6 34 -11 73 -11 88 0 14 -4 26 -10 26 -5
0 -10 12 -10 26 0 15 -8 33 -17 40 -17 13 -17 13 1 14 19 0 19 1 -1 19 -15 15
-20 33 -22 80 -1 55 0 61 19 61 17 0 20 6 20 45 0 42 2 45 23 40 27 -6 53 13
66 48 6 15 17 27 25 27 8 0 17 14 21 30 4 17 12 36 19 43 16 17 9 117 -10 117
-19 0 -84 32 -84 42 0 4 23 8 50 8 28 0 50 -4 50 -10 0 -18 21 -10 47 18 16
16 27 22 30 15 3 -8 12 -9 34 -1 38 13 37 21 -9 41 -51 22 -59 22 -86 -8 -17
-18 -34 -25 -60 -25 -32 0 -36 3 -36 25 0 14 -4 25 -10 25 -5 0 -10 18 -10 40
0 22 5 40 10 40 6 0 10 -13 10 -28 l0 -28 100 4 c85 4 101 2 106 -12 4 -9 18
-16 34 -16 16 0 31 -4 34 -9 4 -5 23 -12 45 -16 27 -4 42 -13 49 -31 7 -13 18
-24 25 -24 21 0 32 -145 16 -202 l-12 -43 -13 85 c-7 47 -10 102 -7 123 5 36
5 37 -26 37 -17 0 -31 4 -31 9 0 5 -14 14 -31 20 -39 14 -49 14 -49 1 0 -5 5
-10 11 -10 6 0 24 -14 41 -32 30 -32 30 -32 18 -93 -6 -33 -21 -80 -32 -103
-17 -36 -19 -55 -14 -103 6 -50 4 -60 -12 -70 -22 -14 -19 -61 4 -52 8 3 14 0
14 -6 0 -6 -7 -11 -15 -11 -8 0 -15 -9 -15 -20 0 -11 -5 -29 -11 -39 -7 -10
-9 -30 -5 -46 6 -23 9 -26 17 -14 6 9 8 -8 8 -52 -1 -38 4 -76 12 -90 7 -13
12 -27 11 -31 -1 -5 5 -8 13 -8 8 0 12 6 9 13 -3 8 3 13 15 13 11 0 17 -4 15
-8 -14 -22 65 -32 97 -12 7 4 9 3 5 -4 -3 -6 -2 -13 3 -16 5 -4 13 -2 16 4 5
8 11 8 19 1 21 -18 125 -71 138 -71 6 0 20 -8 30 -17 17 -15 20 -15 46 4 15
11 42 24 59 27 27 6 80 51 149 128 29 32 71 68 78 68 4 0 30 18 58 40 28 23
55 37 59 33 5 -5 2 -31 -5 -58 -8 -28 -18 -77 -24 -110 -6 -33 -18 -91 -27
-130 -9 -38 -20 -105 -25 -148 -6 -51 -20 -101 -39 -141 -18 -38 -32 -88 -36
-130 -6 -55 -11 -70 -26 -73 -11 -3 -19 -8 -19 -12 0 -3 -25 -32 -56 -65 -50
-53 -57 -58 -87 -52 -18 4 -62 9 -98 13 -58 4 -69 2 -85 -14 -34 -35 -46 -65
-50 -126 -5 -58 -4 -60 32 -93 20 -19 40 -34 44 -34 4 0 26 -14 48 -30 34 -24
42 -36 42 -63 1 -32 1 -32 14 -8 14 26 24 18 32 -23 3 -21 1 -23 -18 -19 l-23
6 23 -25 c22 -24 55 -28 67 -8 3 5 14 6 25 3 11 -3 20 0 20 6 0 14 45 36 89
45 44 8 77 29 83 53 4 16 -3 18 -62 21 -61 3 -68 1 -73 -17 -3 -12 -13 -21
-22 -21 -13 0 -15 5 -9 18 16 36 16 98 0 111 -17 14 -22 41 -7 41 5 0 11 10
14 22 l6 22 25 -25 c63 -61 73 -69 89 -69 9 0 17 -7 17 -15 0 -8 9 -15 20 -15
13 0 22 -9 26 -25 7 -26 34 -35 34 -11 0 8 13 17 29 21 23 5 36 18 56 57 15
28 28 58 30 68 2 9 13 37 25 63 16 33 30 49 48 54 35 9 66 38 59 57 -4 10 -1
13 7 10 12 -5 23 3 52 38 5 7 10 18 11 23 0 6 9 15 19 20 23 12 104 94 104
105 0 4 9 15 20 25 11 10 25 33 32 51 7 19 18 34 25 34 7 0 13 4 13 9 0 5 13
12 29 16 16 3 32 12 34 19 3 8 16 14 29 14 27 0 25 7 28 -146 1 -45 6 -85 11
-88 14 -9 10 -64 -5 -70 -15 -6 -18 -38 -20 -185 0 -76 3 -90 28 -132 24 -42
26 -52 17 -80 -14 -40 -9 -113 7 -129 16 -16 15 -23 -5 -44 -20 -20 -25 -130
-7 -142 19 -13 34 -66 38 -132 5 -82 15 -131 31 -150 7 -8 16 -30 20 -48 4
-18 15 -41 25 -50 10 -10 20 -39 24 -72 3 -30 10 -85 14 -121 4 -37 4 -79 -1
-95 -11 -37 -10 -143 2 -158 29 -36 39 -258 15 -352 -6 -21 -4 -25 7 -19 12 8
12 6 1 -8 -8 -9 -21 -19 -30 -21 -10 -3 -23 -18 -29 -33 -14 -30 -82 -67 -143
-79 -19 -3 -48 -16 -65 -29 -16 -12 -35 -24 -42 -26 -35 -12 -164 -139 -190
-187 -15 -28 -35 -55 -44 -57 -27 -9 -129 -118 -129 -139 0 -9 -30 -46 -67
-83 -18 -17 -33 -36 -33 -42 0 -6 -9 -11 -20 -11 -11 0 -25 -10 -31 -22 -6
-13 -27 -34 -48 -46 -20 -13 -46 -39 -56 -58 -10 -18 -34 -49 -54 -68 -20 -19
-47 -51 -61 -70 -14 -19 -30 -36 -36 -36 -6 0 -21 -11 -34 -25 -13 -14 -31
-25 -40 -25 -8 0 -30 -12 -47 -27 -17 -16 -40 -35 -50 -43 -10 -8 -25 -27 -32
-42 -8 -16 -20 -28 -27 -28 -7 0 -23 -21 -36 -47 -32 -66 -112 -183 -130 -191
-5 -2 -8 -9 -8 -16 0 -7 -11 -19 -25 -26 -14 -7 -25 -21 -25 -31 0 -10 -5 -21
-10 -24 -8 -5 -8 -11 -1 -19 6 -7 8 -16 5 -19 -12 -11 38 -77 62 -83 13 -3 40
-3 60 0 19 4 41 3 47 -2 15 -12 77 -21 77 -11 0 4 10 11 23 15 12 4 26 12 30
18 6 8 10 8 13 0 3 -8 28 -10 75 -7 47 3 75 1 85 -8 26 -22 224 -11 224 12 0
5 11 14 24 18 15 6 25 20 29 41 4 17 11 29 17 25 5 -3 10 0 10 8 0 21 56 70
71 62 8 -5 10 -4 5 3 -5 8 1 12 18 12 14 0 27 4 31 9 3 5 34 12 69 16 60 7 64
9 80 41 9 19 16 40 16 47 0 7 9 18 21 25 12 7 18 16 15 19 -3 3 -12 0 -21 -7
-9 -8 -15 -8 -15 -2 0 24 126 138 173 156 26 10 47 24 47 32 0 8 4 14 9 14 16
0 90 66 115 103 15 21 37 48 51 60 14 12 35 42 48 66 16 31 43 58 91 92 37 25
91 72 119 102 32 34 71 64 102 77 57 25 145 105 145 132 0 10 4 18 8 18 4 0
14 15 20 34 12 32 46 67 105 108 13 9 39 46 58 82 18 36 43 69 54 74 11 5 28
31 38 58 9 27 32 74 49 104 38 65 56 129 64 225 3 39 14 89 24 112 10 24 21
59 25 80 3 21 17 62 30 91 14 30 25 61 25 68 0 39 110 104 176 104 10 0 29 11
43 24 36 35 168 50 374 43 123 -4 166 -2 192 9 19 8 40 11 48 8 8 -3 37 4 66
16 38 15 62 18 84 13 47 -12 129 -5 121 10 -3 7 3 3 13 -9 10 -12 33 -30 51
-40 28 -16 32 -24 32 -59 0 -40 1 -40 65 -68 35 -15 81 -27 102 -27 21 0 58
-5 82 -11 24 -5 59 -10 77 -11 18 -1 32 -4 31 -7 -1 -3 4 -21 12 -39 9 -22 17
-29 22 -21 7 12 38 -45 54 -101 4 -14 20 -52 35 -85 42 -88 60 -159 60 -231 0
-34 5 -66 10 -69 6 -3 10 -27 10 -53 0 -26 13 -103 30 -172 16 -69 37 -174 46
-235 8 -60 22 -117 30 -126 8 -8 14 -21 14 -27 0 -7 4 -12 8 -12 5 0 13 -21
18 -47 7 -38 14 -49 31 -51 14 -2 27 -16 38 -45 9 -23 25 -50 36 -60 10 -10
19 -24 19 -31 0 -21 84 -93 118 -100 16 -4 47 -16 68 -27 47 -24 51 -24 137 2
101 30 227 121 227 165 0 7 17 18 38 24 20 7 42 17 47 24 10 11 23 14 78 20
16 2 38 14 50 29 12 14 32 30 45 36 12 7 22 18 22 25 0 14 -35 28 -45 18 -3
-3 -13 -7 -23 -9 -9 -1 -40 -8 -68 -14 -27 -7 -61 -9 -75 -6 -43 11 -63 103
-37 173 9 25 21 35 52 45 23 7 52 21 65 31 17 13 28 15 35 8 5 -5 20 -10 32
-10 25 0 76 -24 74 -35 -1 -4 1 -9 4 -13 3 -3 6 0 6 6 0 7 3 12 8 12 15 0 13
-110 -3 -132 -8 -13 -15 -26 -15 -31 0 -10 42 -26 53 -20 5 3 62 7 127 9 93 3
128 8 157 23 21 10 88 27 148 36 61 9 129 21 153 26 23 5 55 9 71 9 16 0 36 7
45 15 8 8 25 15 38 15 29 0 68 26 68 45 0 34 -43 124 -72 151 -57 54 -123 120
-207 210 -164 174 -205 216 -227 230 -12 8 -28 28 -36 44 -20 42 -245 270
-266 270 -9 0 -23 9 -29 20 -25 39 -49 43 -85 12 -18 -16 -43 -34 -55 -41 -22
-11 -53 -69 -66 -123 -4 -14 -18 -39 -31 -55 -25 -30 -46 -91 -46 -136 0 -44
-19 -57 -47 -31 -17 15 -24 35 -26 73 -3 37 -11 58 -26 72 -13 13 -20 30 -19
48 1 15 -8 43 -20 63 -12 20 -20 43 -16 51 3 8 1 18 -5 22 -6 3 -11 22 -11 41
0 20 -5 45 -11 57 -11 20 -34 95 -44 143 -3 12 2 27 10 34 20 16 19 32 -5 84
-17 38 -18 51 -9 117 21 147 10 209 -36 209 -14 0 -26 3 -26 8 -1 4 -3 16 -4
27 -6 48 -26 103 -41 109 -8 3 -13 10 -9 15 3 5 1 12 -4 15 -5 3 -12 21 -15
40 -11 59 -35 94 -88 128 -91 59 -101 67 -110 83 -6 9 -17 13 -31 10 -12 -3
-53 -2 -92 3 -59 6 -73 5 -87 -9 -9 -10 -14 -19 -12 -22 2 -2 -16 -3 -42 -3
-41 1 -45 3 -41 24 3 14 -1 22 -9 22 -16 0 -66 45 -58 53 11 11 -39 29 -66 23
-17 -3 -42 2 -66 14 -21 11 -44 20 -52 20 -7 0 -27 7 -44 16 -49 25 -248 30
-291 6 -29 -15 -33 -23 -29 -59 1 -6 12 -13 24 -15 11 -2 22 -11 24 -22 1 -10
12 -25 23 -33 12 -8 21 -23 21 -34 0 -14 7 -19 30 -19 17 0 30 -5 30 -12 0 -9
3 -8 10 2 8 13 11 12 24 -5 19 -25 19 -25 1 -49 -8 -11 -15 -28 -15 -38 0 -10
-9 -23 -20 -30 -11 -7 -20 -20 -20 -28 -1 -8 -9 -25 -20 -38 -26 -32 -47 -23
-120 49 -56 55 -91 72 -105 49 -3 -5 -25 -7 -50 -3 -31 4 -45 2 -45 -6 0 -22
-40 -51 -72 -52 -18 0 -42 -4 -52 -8 -11 -4 -30 -3 -43 3 -19 9 -23 19 -23 54
0 33 -6 49 -26 69 -26 26 -26 53 0 53 9 0 18 11 22 25 3 14 16 33 28 41 l21
16 -24 -7 c-20 -6 -23 -4 -18 10 4 9 7 19 7 21 0 2 7 4 15 4 24 0 59 37 60 63
0 12 3 22 6 22 4 0 16 9 28 19 l22 20 -28 12 c-16 6 -37 19 -48 28 -17 13 -18
17 -5 26 8 5 10 10 4 10 -11 0 -34 110 -30 150 1 14 8 43 15 64 16 46 9 207
-10 250 -10 22 -9 29 4 44 20 22 22 33 5 29 -9 -1 -13 14 -13 53 0 36 4 54 11
53 17 -3 29 139 14 168 -7 12 -10 37 -7 56 3 19 1 45 -5 59 -10 21 -8 28 15
52 18 19 27 39 27 60 0 21 6 35 16 39 12 4 14 13 9 37 -16 77 -17 166 -1 191
9 13 16 32 16 41 0 10 20 37 45 61 25 24 43 47 41 52 -6 9 26 22 61 25 13 1
37 -11 55 -28 18 -17 35 -31 38 -32 25 -5 40 -20 40 -37 0 -26 22 -87 31 -87
7 0 24 -69 20 -84 -1 -5 11 -25 27 -45 16 -20 32 -53 36 -73 4 -21 11 -38 16
-38 4 0 19 -28 32 -61 14 -37 30 -64 41 -67 9 -2 17 -10 17 -17 0 -7 16 -44
36 -84 24 -48 45 -76 64 -86 16 -8 42 -28 57 -45 16 -17 43 -32 63 -35 19 -3
39 -10 44 -16 6 -5 18 -9 28 -9 9 0 33 -9 53 -20 20 -11 48 -20 62 -20 32 0
111 28 134 47 9 8 34 17 55 20 70 11 184 81 184 113 0 15 18 32 67 63 55 35
82 64 103 112 15 36 15 44 2 75 -8 19 -24 44 -36 55 -12 11 -35 38 -51 60 -16
22 -44 56 -62 76 -19 19 -41 50 -51 67 -9 17 -33 42 -52 54 -19 13 -36 33 -38
45 -2 12 -15 29 -30 39 -47 30 -135 128 -154 172 -13 28 -25 42 -38 42 -11 0
-24 9 -30 20 -6 11 -19 20 -29 20 -17 0 -41 54 -41 94 0 16 28 31 73 40 109
21 164 42 201 78 22 21 44 38 48 38 4 0 8 6 8 14 0 7 13 19 30 26 28 12 30 15
25 53 -3 22 2 84 12 136 9 53 17 107 16 121 -2 95 -13 164 -30 201 -23 49 -46
169 -37 192 3 8 -9 84 -26 168 -17 85 -33 195 -36 244 -5 94 -41 195 -69 195
-27 0 -45 48 -45 119 0 63 -14 120 -29 122 -28 3 -56 11 -60 16 -3 3 5 3 18 0
22 -6 23 -5 8 10 -9 9 -19 14 -23 11 -9 -10 -11 -69 -2 -74 13 -9 9 -24 -7
-24 -8 0 -14 5 -13 12 2 6 -5 14 -14 16 -14 3 -18 -3 -18 -22 0 -18 4 -24 14
-20 12 5 13 0 3 -33 -6 -21 -16 -41 -22 -45 -6 -5 -5 -8 3 -8 7 0 10 -4 7 -10
-3 -5 -15 -10 -26 -10 -16 0 -12 -7 21 -40 25 -25 50 -40 65 -40 28 0 29 -3
15 -31 -8 -14 -7 -19 1 -19 9 0 10 -20 5 -72 -3 -40 -2 -97 3 -125 l8 -53 -43
0 c-34 0 -44 -4 -44 -17 0 -35 -11 -2 -16 46 -5 54 -1 58 59 52 9 -1 17 1 17
6 0 12 -20 39 -20 28 0 -5 -7 -1 -15 9 -11 14 -15 16 -15 5 0 -17 -55 -43 -75
-35 -14 5 -20 40 -16 91 2 17 0 18 -9 5 -10 -13 -11 -12 -7 5 3 11 8 29 13 40
7 18 6 18 -9 6 -11 -9 -17 -10 -17 -2 0 6 -4 11 -10 11 -5 0 -10 -9 -10 -21 0
-13 4 -18 11 -13 9 5 10 -1 5 -20 -3 -14 -3 -26 1 -26 5 0 8 -52 7 -115 0 -67
3 -115 9 -115 5 0 5 -5 -1 -13 -6 -7 -18 -44 -27 -82 -30 -130 -49 -190 -72
-223 -12 -19 -25 -42 -28 -51 -8 -27 -96 -43 -133 -24 -39 21 -104 43 -127 43
-33 0 -175 49 -249 86 -38 19 -77 34 -86 34 -9 0 -38 11 -64 25 -26 14 -64 29
-84 34 -44 11 -99 32 -129 49 -18 10 -23 21 -23 56 0 30 -8 55 -27 82 -21 31
-27 53 -30 109 -2 39 -5 75 -7 80 -2 6 2 38 9 73 7 34 14 95 16 135 1 39 6 77
10 82 19 25 18 68 -1 93 -11 13 -20 19 -20 13 0 -7 -4 -9 -10 -6 -5 3 -10 19
-10 34 0 32 -19 53 -53 56 -12 1 -28 3 -34 4 -7 0 -13 10 -13 21 0 24 -16 26
-28 3 -9 -14 -10 -14 -16 5 -4 12 -12 22 -17 22 -5 0 -9 7 -9 15 0 9 -10 26
-21 38 -12 12 -34 40 -50 61 -48 64 -94 81 -284 101 -144 16 -155 17 -171 28
-7 4 -25 0 -40 -8 -16 -8 -33 -15 -39 -15 -5 0 -37 -21 -70 -46 -33 -25 -72
-48 -87 -51 -16 -3 -28 -12 -28 -19 0 -8 -4 -14 -8 -14 -5 0 -16 -18 -26 -40
-10 -22 -22 -40 -28 -40 -6 0 -16 -7 -22 -15 -6 -8 -29 -16 -50 -18 l-39 -2
-13 58 c-8 32 -15 82 -16 112 -2 30 -6 55 -10 55 -4 0 -17 20 -29 45 -15 30
-35 51 -61 65 -43 22 -54 23 -119 5z m28 -169 c-4 -10 -1 -13 9 -9 17 6 64 -4
64 -15 0 -4 -22 -5 -49 -4 l-48 4 7 -49 c4 -26 6 -50 4 -52 -2 -2 -4 1 -4 9 0
9 -3 10 -14 1 -7 -6 -22 -8 -31 -4 -16 6 -15 7 6 15 22 8 22 10 7 19 -10 6
-18 16 -18 24 0 8 -8 19 -17 24 -10 6 -12 11 -5 11 6 0 21 9 32 20 24 24 65
28 57 6z m70 -88 c-3 -8 -6 -5 -6 6 -1 11 2 17 5 13 3 -3 4 -12 1 -19z m818
-626 c5 -12 15 -22 21 -22 15 0 36 -25 27 -33 -3 -4 -19 7 -36 22 -17 17 -36
27 -46 24 -10 -3 -9 0 4 8 19 12 19 12 0 21 -20 8 -20 8 0 5 11 -1 24 -12 30
-25z m40 -2 c3 -5 -1 -10 -10 -10 -9 0 -13 5 -10 10 3 6 8 10 10 10 2 0 7 -4
10 -10z m-75 -24 c0 -11 -19 -15 -25 -6 -3 5 1 10 9 10 9 0 16 -2 16 -4z
m1656 -22 c-3 -9 -6 -45 -6 -80 0 -35 -4 -64 -8 -64 -5 0 -9 36 -10 80 -1 66
2 80 15 80 10 0 13 -6 9 -16z m-1616 -19 c0 -14 -5 -25 -11 -25 -6 0 -8 7 -5
17 4 9 1 20 -6 25 -10 6 -8 8 5 8 12 0 17 -8 17 -25z m-30 -6 c0 -6 -4 -7 -10
-4 -5 3 -10 11 -10 16 0 6 5 7 10 4 6 -3 10 -11 10 -16z m80 -3 c0 -3 -4 -8
-10 -11 -5 -3 -10 -1 -10 4 0 6 5 11 10 11 6 0 10 -2 10 -4z m-740 -26 c0 -5
-2 -10 -4 -10 -3 0 -8 5 -11 10 -3 6 -1 10 4 10 6 0 11 -4 11 -10z m20 -21 c0
-5 7 -9 15 -9 8 0 15 -8 16 -17 4 -70 -17 -151 -34 -134 -6 6 -16 11 -22 11
-5 0 -4 -4 4 -9 7 -5 10 -14 7 -20 -10 -16 -26 -13 -26 4 0 9 -7 27 -16 40
-23 35 -26 93 -7 119 16 21 63 32 63 15z m2407 -56 c-3 -10 -5 -2 -5 17 0 19
2 27 5 18 2 -10 2 -26 0 -35z m10 -85 c-3 -8 -6 -5 -6 6 -1 11 2 17 5 13 3 -3
4 -12 1 -19z m-4096 -151 c-9 -9 -10 -5 -7 13 6 36 8 37 13 16 3 -10 0 -23 -6
-29z m4119 7 c0 -13 -4 -24 -10 -24 -5 0 -10 14 -10 31 0 17 4 28 10 24 6 -3
10 -17 10 -31z m-4080 -14 c0 -5 -4 -10 -10 -10 -5 0 -10 5 -10 10 0 6 5 10
10 10 6 0 10 -4 10 -10z m-57 -38 c-21 -22 -26 -21 -17 2 3 9 12 16 20 16 11
0 10 -4 -3 -18z m4149 -37 c8 -49 -2 -175 -13 -175 -5 0 -9 -14 -9 -31 0 -17
-4 -28 -10 -24 -5 3 -10 17 -10 31 0 22 -4 24 -50 24 l-50 0 0 40 c0 29 4 40
15 40 11 0 15 11 15 40 0 22 5 40 10 40 6 0 10 -17 10 -39 0 -32 4 -39 23 -43
49 -9 57 0 57 58 0 41 -4 54 -15 54 -8 0 -12 6 -9 15 10 26 29 11 36 -30z
m-120 3 c-9 -9 -12 -7 -12 12 0 19 3 21 12 12 9 -9 9 -15 0 -24z m-4062 -8 c0
-6 -8 -10 -17 -8 -14 2 -17 -3 -15 -22 2 -20 1 -22 -8 -10 -9 13 -11 13 -20 0
-8 -12 -10 -13 -10 -1 0 21 30 51 52 51 10 0 18 -5 18 -10z m-1480 -100 c0 -5
-4 -10 -9 -10 -6 0 -13 5 -16 10 -3 6 1 10 9 10 9 0 16 -4 16 -10z m2010 -30
c0 -22 -4 -40 -10 -40 -5 0 -10 18 -10 40 0 22 5 40 10 40 6 0 10 -18 10 -40z
m188 -12 c-6 -18 -28 -21 -28 -4 0 9 7 16 16 16 9 0 14 -5 12 -12z m-588 -18
c0 -5 -7 -10 -16 -10 -8 0 -12 5 -9 10 3 6 10 10 16 10 5 0 9 -4 9 -10z m3591
-39 c-8 -5 -20 -7 -28 -4 -21 8 -15 13 15 13 20 0 23 -3 13 -9z m-28 -40 c4
-24 15 -32 110 -76 42 -19 65 -25 88 -20 22 5 36 2 50 -11 17 -15 22 -16 29
-5 7 12 13 12 42 1 18 -8 36 -18 40 -24 8 -12 89 -37 100 -30 4 3 8 -4 8 -16
0 -18 4 -21 28 -16 39 9 61 -11 68 -64 9 -69 -11 -86 -116 -101 -95 -12 -418
-15 -465 -3 -16 4 -41 14 -55 23 -24 15 -24 15 -10 -4 14 -17 13 -18 -3 -12
-10 4 -25 7 -33 7 -10 0 -14 13 -14 44 0 71 16 137 55 219 28 60 41 77 57 77
16 0 18 3 9 13 -6 8 -8 17 -4 20 9 9 12 5 16 -22z m-3893 12 c0 -5 -7 -17 -15
-27 -15 -20 -15 -20 -15 0 0 12 3 24 7 27 9 9 23 9 23 0z m66 -20 c-10 -10
-19 5 -10 18 6 11 8 11 12 0 2 -7 1 -15 -2 -18z m-161 -142 c3 -5 1 -12 -5
-16 -5 -3 -10 1 -10 9 0 18 6 21 15 7z m125 -281 c0 -11 -4 -20 -10 -20 -5 0
-10 9 -10 20 0 11 5 20 10 20 6 0 10 -9 10 -20z m-430 -175 c-7 -9 -15 -13
-17 -11 -6 6 20 36 26 30 2 -2 -2 -10 -9 -19z m-1 -38 c-8 -7 -19 -21 -24 -32
-8 -20 -8 -20 -13 0 -2 10 1 21 7 23 7 2 17 10 24 17 7 7 14 11 17 8 3 -2 -2
-10 -11 -16z m-56 -12 c-3 -9 -8 -14 -10 -11 -3 3 -2 9 2 15 9 16 15 13 8 -4z
m472 5 c-3 -5 -14 -10 -23 -9 -14 0 -13 2 3 9 27 11 27 11 20 0z m-493 -62
c-7 -7 -12 -8 -12 -2 0 14 12 26 19 19 2 -3 -1 -11 -7 -17z m428 -22 c0 -3 -4
-8 -10 -11 -5 -3 -10 -1 -10 4 0 6 5 11 10 11 6 0 10 -2 10 -4z m60 -6 c0 -5
6 -10 14 -10 7 0 19 -7 27 -16 10 -13 10 -17 -2 -25 -25 -16 -45 -10 -57 16
-16 34 -15 45 3 45 8 0 15 -4 15 -10z m3784 -33 c3 -13 28 -47 56 -75 27 -28
50 -60 50 -71 0 -12 6 -21 14 -21 8 0 16 -7 20 -15 3 -9 0 -15 -9 -15 -8 0
-15 -4 -15 -10 0 -5 -7 -10 -15 -10 -8 0 -15 -7 -15 -15 0 -8 -7 -15 -15 -15
-13 0 -20 -17 -17 -41 2 -10 -49 -21 -57 -14 -3 4 -6 12 -6 18 0 7 -17 21 -37
32 -25 13 -42 32 -52 57 -14 37 -13 41 14 101 16 35 36 69 44 76 9 8 16 20 16
27 0 23 17 16 24 -9z m-3610 -20 c-8 -21 -15 -21 -40 -2 -19 14 -18 14 4 15
12 0 22 5 22 12 0 8 3 9 10 2 6 -6 8 -18 4 -27z m-774 -96 c3 -2 -5 -1 -17 2
-13 3 -23 0 -23 -6 0 -6 -2 -8 -5 -5 -3 3 -3 13 1 22 6 16 13 14 44 -13z
m4570 -91 c0 -5 -4 -10 -10 -10 -5 0 -10 5 -10 10 0 6 5 10 10 10 6 0 10 -4
10 -10z m-3993 -172 c-3 -8 -6 -5 -6 6 -1 11 2 17 5 13 3 -3 4 -12 1 -19z
m383 18 c0 -11 -19 -15 -25 -6 -3 5 1 10 9 10 9 0 16 -2 16 -4z m728 -64 c-8
-9 -7 -11 6 -6 9 3 24 0 34 -7 15 -13 16 -12 3 4 -12 15 -11 17 8 17 12 0 19
-4 16 -10 -3 -6 1 -7 9 -4 13 5 16 -1 16 -30 0 -22 -5 -36 -12 -37 -10 0 -10
-2 0 -6 20 -8 13 -48 -13 -71 -14 -12 -25 -31 -25 -42 0 -11 -4 -20 -10 -20
-5 0 -7 7 -4 15 4 8 1 15 -5 15 -8 0 -8 6 1 19 7 11 14 18 18 17 11 -7 42 32
31 39 -6 3 -11 1 -11 -4 0 -6 -5 -11 -11 -11 -6 0 -8 8 -4 19 5 16 1 18 -27
16 -18 -2 -41 -3 -50 -4 -21 -1 -24 -27 -5 -34 6 -2 9 -7 6 -11 -3 -3 -14 -3
-23 0 -13 5 -16 13 -11 28 4 11 10 40 12 64 3 23 9 42 15 42 5 0 7 4 4 9 -3 5
5 8 18 7 18 -1 22 -4 14 -14z m32 -126 c0 -4 -6 -3 -14 3 -8 6 -18 11 -22 10
-20 -3 -28 2 -15 10 15 10 51 -7 51 -23z m-2436 -58 c26 -16 73 -35 103 -43
30 -8 70 -24 89 -36 31 -19 34 -23 20 -38 -8 -9 -18 -28 -21 -43 -12 -49 -49
-37 -119 37 -33 35 -77 71 -97 79 -26 11 -40 25 -48 47 -6 18 -11 33 -11 35 0
6 35 -10 84 -38z m743 -40 c-3 -7 -5 -2 -5 12 0 14 2 19 5 13 2 -7 2 -19 0
-25z m581 -53 c0 -16 -2 -15 -8 5 -11 34 -11 60 0 35 5 -11 8 -29 8 -40z m99
-32 c3 -7 -8 -11 -26 -11 -34 1 -42 14 -13 21 23 6 35 3 39 -10z m-117 -30 c0
-5 -5 -15 -10 -23 -8 -12 -10 -11 -10 8 0 12 5 22 10 22 6 0 10 -3 10 -7z m95
-83 c-3 -5 -16 -10 -28 -9 -21 0 -21 1 -2 9 28 12 37 12 30 0z m48 3 c-7 -2
-19 -2 -25 0 -7 3 -2 5 12 5 14 0 19 -2 13 -5z m107 -13 c0 -5 -2 -10 -4 -10
-3 0 -8 5 -11 10 -3 6 -1 10 4 10 6 0 11 -4 11 -10z m220 -20 c0 -5 -4 -10
-10 -10 -5 0 -10 5 -10 10 0 6 5 10 10 10 6 0 10 -4 10 -10z m-53 -46 c-3 -3
-12 -4 -19 -1 -8 3 -5 6 6 6 11 1 17 -2 13 -5z m-67 -29 c-7 -9 -15 -13 -17
-11 -6 6 20 36 26 30 2 -2 -2 -10 -9 -19z m-743 -41 c-3 -3 -12 -4 -19 -1 -8
3 -5 6 6 6 11 1 17 -2 13 -5z m1803 -58 c0 -3 -4 -8 -10 -11 -5 -3 -10 -1 -10
4 0 6 5 11 10 11 6 0 10 -2 10 -4z m-1944 -106 c8 0 14 -8 14 -17 -1 -21 -33
-63 -49 -63 -6 0 -11 -4 -11 -10 0 -5 -4 -10 -10 -10 -6 0 -10 26 -10 59 0 51
3 62 23 76 21 15 22 14 25 -10 2 -14 10 -25 18 -25z m1914 -2 c0 -10 -19 -9
-45 2 -16 7 -14 8 12 7 18 -1 33 -5 33 -9z m1373 -655 c-1 -6 -5 -26 -8 -45
-3 -18 -15 -41 -27 -51 -31 -26 -31 -101 1 -127 4 -3 11 -18 16 -35 8 -22 18
-31 40 -35 27 -5 30 -8 27 -41 -3 -34 -2 -35 39 -44 43 -10 76 -43 52 -52 -7
-3 -20 -20 -29 -40 -10 -19 -22 -36 -28 -38 -58 -15 -97 -30 -87 -33 6 -2 9
-8 5 -13 -9 -16 -24 -10 -24 11 0 14 -11 22 -39 31 -30 9 -40 18 -44 37 -7 34
1 52 22 52 27 0 33 12 15 31 -15 17 -15 22 -1 58 15 37 15 41 -2 63 -25 33
-33 59 -21 73 6 8 6 17 -3 27 -18 23 -87 13 -87 -13 0 -10 -5 -19 -10 -19 -6
0 -15 -12 -20 -26 -9 -23 -14 -25 -45 -20 -27 5 -37 3 -41 -9 -3 -8 -15 -15
-26 -15 -14 0 -18 5 -14 16 3 9 2 12 -5 9 -6 -4 -8 -13 -5 -21 3 -7 1 -16 -4
-19 -6 -4 -10 1 -10 9 0 9 -8 16 -17 16 -15 0 -16 -2 -3 -10 10 -7 11 -10 2
-10 -19 0 -27 30 -13 51 6 11 8 19 4 19 -16 0 -30 -16 -36 -40 -3 -14 -11 -45
-17 -70 -14 -58 -6 -86 30 -105 37 -19 55 -53 69 -130 16 -88 14 -109 -20
-177 -17 -35 -33 -76 -36 -93 -3 -16 -15 -39 -28 -50 -12 -12 -24 -27 -26 -34
-5 -14 -78 -29 -145 -30 -22 -1 -55 -8 -71 -16 -17 -9 -44 -15 -60 -14 -15 0
-50 -2 -78 -6 -49 -7 -51 -6 -97 37 -42 38 -48 49 -48 83 0 34 -7 46 -46 84
-25 24 -50 56 -56 70 -5 14 -11 74 -12 132 -2 58 -6 111 -10 117 -4 7 -2 37 3
69 14 72 14 140 1 148 -5 3 -10 37 -10 75 0 65 1 68 28 77 15 6 54 8 87 6 94
-7 99 -7 119 2 11 5 31 4 49 -3 23 -9 35 -8 57 3 21 11 36 12 61 4 84 -25 149
-40 168 -38 38 3 50 -3 70 -37 12 -19 21 -42 21 -50 0 -21 18 -17 25 6 7 22
41 27 48 8 2 -7 4 0 4 17 0 19 8 34 23 44 26 18 119 52 135 49 20 -3 105 43
105 57 0 14 10 18 27 13 13 -5 13 -32 0 -41 -8 -6 -8 -7 3 -4 8 2 16 15 17 28
0 13 1 28 2 32 1 5 9 7 19 5 9 -2 16 -9 15 -15z m-3763 -273 c0 -16 -4 -30
-10 -30 -5 0 -10 -7 -10 -15 0 -16 -15 -20 -24 -7 -6 10 26 81 37 82 4 0 7
-13 7 -30z m4188 -6 c21 -4 34 -15 42 -33 23 -56 42 -82 55 -77 9 3 18 -10 27
-37 18 -54 14 -72 -23 -87 -41 -17 -63 2 -56 47 3 18 1 35 -5 39 -5 3 -8 14
-5 24 6 22 -18 16 -27 -6 -8 -21 -34 -17 -41 6 -4 11 -10 18 -15 15 -11 -7
-50 67 -50 95 0 16 6 20 34 20 18 0 47 -3 64 -6z m96 -28 c-10 -8 -21 -12 -23
-10 -3 2 4 11 15 18 10 8 21 12 23 10 3 -2 -4 -11 -15 -18z m-4371 -77 c4 -3
-11 -25 -34 -50 -22 -24 -40 -39 -38 -34 1 6 -1 18 -6 28 -10 24 10 46 40 42
14 -1 25 2 25 6 0 5 -5 9 -11 9 -5 0 -7 5 -4 11 4 6 10 7 14 2 3 -4 9 -10 14
-14z m117 -2 c0 -2 -10 -13 -22 -25 l-23 -21 0 23 c0 16 6 23 23 24 12 1 22 0
22 -1z m-93 -118 c-9 -6 -17 -16 -17 -23 0 -16 -48 -62 -56 -54 -3 4 3 11 14
17 11 6 23 24 27 40 3 17 14 31 23 34 24 5 30 -3 9 -14z m4803 12 c0 -14 -23
-28 -57 -34 -25 -5 -33 -3 -33 8 0 11 8 13 30 9 22 -5 31 -2 36 10 6 17 24 22
24 7z m-627 -32 c7 -11 19 -19 27 -20 8 0 4 -5 -10 -10 -25 -10 -120 -22 -120
-15 0 4 21 45 32 62 11 16 57 5 71 -17z m-198 1 c3 -6 -4 -10 -17 -10 -18 0
-20 2 -8 10 19 12 18 12 25 0z m71 -45 c1 -13 -2 -28 -8 -31 -7 -5 -8 -2 -3 6
5 8 1 18 -10 27 -17 12 -18 13 -1 13 11 0 15 5 10 13 -4 6 -3 9 1 5 5 -5 9
-19 11 -33z m641 -17 c-3 -8 -6 -5 -6 6 -1 11 2 17 5 13 3 -3 4 -12 1 -19z
m63 -48 c0 -5 -2 -10 -4 -10 -3 0 -8 5 -11 10 -3 6 -1 10 4 10 6 0 11 -4 11
-10z m-4936 -56 c3 -8 2 -12 -4 -9 -6 3 -10 10 -10 16 0 14 7 11 14 -7z m5756
6 c0 -5 -4 -10 -9 -10 -6 0 -13 5 -16 10 -3 6 1 10 9 10 9 0 16 -4 16 -10z
m-5791 -36 c-14 -17 -25 -18 -32 -1 -3 7 5 13 20 13 19 2 22 -1 12 -12z m5758
10 c-3 -3 -12 -4 -19 -1 -8 3 -5 6 6 6 11 1 17 -2 13 -5z m-652 -122 c-3 -3
-11 0 -18 7 -9 10 -8 11 6 5 10 -3 15 -9 12 -12z m42 -8 c-3 -3 -12 -4 -19 -1
-8 3 -5 6 6 6 11 1 17 -2 13 -5z m-5347 -44 c0 -5 -2 -10 -4 -10 -3 0 -8 5
-11 10 -3 6 -1 10 4 10 6 0 11 -4 11 -10z m5260 -20 c0 -5 -7 -10 -15 -10 -8
0 -15 5 -15 10 0 6 7 10 15 10 8 0 15 -4 15 -10z m694 -89 c3 -4 31 -16 63
-26 70 -22 83 -31 83 -60 0 -13 5 -25 11 -27 19 -6 -32 -54 -66 -62 -16 -5
-43 -8 -58 -8 -70 -1 -126 123 -78 171 22 22 37 26 45 12z m-359 -61 c3 -5 1
-10 -4 -10 -6 0 -11 5 -11 10 0 6 2 10 4 10 3 0 8 -4 11 -10z m1270 -930 c3
-5 1 -10 -4 -10 -6 0 -11 5 -11 10 0 6 2 10 4 10 3 0 8 -4 11 -10z m45 5 c0
-2 -6 -8 -13 -14 -10 -8 -14 -7 -14 2 0 8 6 14 14 14 7 0 13 -1 13 -2z m-4130
-92 c0 -5 20 -21 45 -36 25 -16 45 -31 45 -33 0 -2 -27 -4 -60 -4 l-60 0 0 40
c0 29 4 40 15 40 8 0 15 -3 15 -7z m287 -49 c-3 -3 -12 -4 -19 -1 -8 3 -5 6 6
6 11 1 17 -2 13 -5z m-70 -41 c-9 -9 -19 -14 -23 -11 -10 10 6 28 24 28 15 0
15 -1 -1 -17z m-507 -55 c0 -5 -16 -8 -35 -8 -41 0 -43 7 -12 36 l22 21 12
-21 c7 -12 12 -24 13 -28z m405 42 c3 -5 1 -10 -4 -10 -6 0 -11 5 -11 10 0 6
2 10 4 10 3 0 8 -4 11 -10z m25 -24 c0 -2 -13 -6 -30 -8 -16 -3 -30 -1 -30 4
0 4 14 8 30 8 17 0 30 -2 30 -4z m-173 -52 c-3 -3 -12 -4 -19 -1 -8 3 -5 6 6
6 11 1 17 -2 13 -5z m33 -4 c0 -5 -4 -10 -10 -10 -5 0 -10 5 -10 10 0 6 5 10
10 10 6 0 10 -4 10 -10z m-30 -24 c0 -5 -59 -36 -67 -36 -3 0 2 6 9 13 18 19
58 34 58 23z m-200 -30 c0 -24 -17 -36 -51 -36 -32 0 -39 -3 -39 -20 0 -13 9
-22 25 -26 14 -3 25 -11 25 -16 0 -5 -3 -8 -7 -6 -5 3 -23 11 -40 18 -29 13
-33 19 -33 52 l0 38 60 0 c33 0 60 -2 60 -4z m120 -16 c0 -5 -5 -10 -11 -10
-5 0 -7 5 -4 10 3 6 8 10 11 10 2 0 4 -4 4 -10z m-40 -22 c0 -4 -9 -8 -20 -8
-11 0 -20 4 -20 9 0 6 9 9 20 8 11 -1 20 -5 20 -9z m-50 -32 c0 -3 -4 -8 -10
-11 -5 -3 -10 -1 -10 4 0 6 5 11 10 11 6 0 10 -2 10 -4z m-164 -111 c-22 -17
-61 -20 -51 -5 3 5 12 7 19 4 8 -3 17 -1 21 5 3 6 12 11 18 11 7 0 3 -7 -7
-15z m-276 -45 c0 -5 -5 -10 -11 -10 -5 0 -7 5 -4 10 3 6 8 10 11 10 2 0 4 -4
4 -10z m193 3 c-7 -2 -19 -2 -25 0 -7 3 -2 5 12 5 14 0 19 -2 13 -5z m-220
-121 c-3 -12 -12 -22 -20 -22 -11 0 -10 5 4 24 21 28 24 28 16 -2z"/>
<path d="M4817 3894 c6 -15 23 -19 23 -5 0 5 -7 11 -14 14 -10 4 -13 1 -9 -9z"/>
<path d="M4532 3740 c-15 -24 -15 -30 -2 -30 6 0 10 7 10 16 0 8 4 12 10 9 6
-3 7 1 4 9 -8 20 -7 20 -22 -4z"/>
<path d="M5150 7830 c0 -5 5 -10 11 -10 5 0 7 5 4 10 -3 6 -8 10 -11 10 -2 0
-4 -4 -4 -10z"/>
<path d="M6307 7793 c-4 -3 -7 -14 -7 -24 0 -9 -6 -20 -12 -22 -7 -3 -3 -6 10
-6 18 -1 22 4 22 29 0 31 -2 35 -13 23z"/>
<path d="M6413 7779 c-2 -23 3 -25 10 -4 4 8 3 16 -1 19 -4 3 -9 -4 -9 -15z"/>
<path d="M6400 7739 c0 -5 5 -7 10 -4 6 3 10 8 10 11 0 2 -4 4 -10 4 -5 0 -10
-5 -10 -11z"/>
<path d="M6300 7689 c-14 -24 -12 -28 20 -31 31 -4 39 27 11 41 -17 9 -22 8
-31 -10z"/>
<path d="M6303 7634 c-3 -8 -1 -20 6 -27 8 -8 11 -4 11 16 0 30 -7 35 -17 11z"/>
<path d="M6340 7620 c0 -13 7 -20 20 -20 24 0 27 25 4 34 -23 9 -24 8 -24 -14z"/>
<path d="M3585 7610 c-3 -5 1 -10 10 -10 9 0 13 5 10 10 -3 6 -8 10 -10 10 -2
0 -7 -4 -10 -10z"/>
<path d="M160 7467 c-12 -9 -16 -32 -16 -90 -1 -74 0 -78 23 -83 40 -11 73 29
73 88 0 26 -4 48 -10 48 -5 0 -10 5 -10 11 0 11 -29 38 -40 38 -3 0 -12 -5
-20 -12z"/>
<path d="M2690 7399 c0 -5 5 -7 10 -4 6 3 10 8 10 11 0 2 -4 4 -10 4 -5 0 -10
-5 -10 -11z"/>
<path d="M2626 7247 c3 -10 9 -15 12 -12 3 3 0 11 -7 18 -10 9 -11 8 -5 -6z"/>
<path d="M2592 7228 c-8 -8 -9 -15 0 -25 15 -18 3 -28 -13 -11 -14 16 -29 5
-61 -44 -21 -32 -24 -62 -4 -35 13 17 14 17 18 -1 3 -10 19 -29 37 -41 l31
-22 0 65 c0 53 3 66 16 66 14 0 14 2 -1 16 -9 9 -14 23 -11 30 7 17 4 18 -12
2z m-25 -70 c1 -27 -1 -29 -7 -13 -5 11 -9 14 -9 8 -1 -7 -6 -13 -11 -13 -6 0
-3 11 6 25 9 14 17 25 19 25 1 0 2 -15 2 -32z m-2 -48 c3 -5 1 -10 -4 -10 -6
0 -11 5 -11 10 0 6 2 10 4 10 3 0 8 -4 11 -10z"/>
<path d="M3105 7090 c3 -5 8 -10 11 -10 2 0 4 5 4 10 0 6 -5 10 -11 10 -5 0
-7 -4 -4 -10z"/>
<path d="M2480 7078 c0 -9 -13 -30 -30 -46 -16 -17 -30 -39 -29 -49 0 -15 2
-15 9 3 5 12 17 28 27 35 32 24 43 44 33 59 -8 13 -10 12 -10 -2z"/>
<path d="M3267 7043 c-11 -10 -8 -51 3 -58 6 -4 10 8 10 29 0 37 -2 41 -13 29z"/>
<path d="M3140 7030 c0 -5 5 -10 10 -10 6 0 10 5 10 10 0 6 -4 10 -10 10 -5 0
-10 -4 -10 -10z"/>
<path d="M2538 7023 c7 -3 16 -2 19 1 4 3 -2 6 -13 5 -11 0 -14 -3 -6 -6z"/>
<path d="M2460 7010 c0 -13 11 -13 30 0 12 8 11 10 -7 10 -13 0 -23 -4 -23
-10z"/>
<path d="M2544 6986 c-3 -8 -1 -23 5 -33 9 -15 10 -13 11 15 0 34 -7 42 -16
18z"/>
<path d="M2432 6960 c-7 -11 -9 -20 -4 -20 4 0 13 9 20 20 7 11 9 20 4 20 -4
0 -13 -9 -20 -20z"/>
<path d="M2463 6964 c-15 -16 -16 -24 -4 -24 8 0 24 30 19 35 -2 2 -9 -3 -15
-11z"/>
<path d="M3136 6958 c-2 -11 1 -18 10 -18 8 0 14 5 14 11 0 6 7 8 15 5 8 -3
22 -9 31 -12 12 -5 15 -2 12 12 -5 26 -75 27 -82 2z"/>
<path d="M0 6701 l0 -141 27 -6 c16 -3 42 -10 60 -14 33 -8 104 6 122 25 15
16 16 49 1 75 -8 14 -14 50 -14 82 -1 31 -4 52 -7 46 -6 -10 -59 33 -59 48 0
5 -10 9 -22 10 -13 0 -42 4 -65 8 l-43 8 0 -141z"/>
<path d="M220 6756 c0 -16 43 -96 53 -96 5 0 4 6 -2 14 -7 8 -20 31 -31 52
-11 22 -19 35 -20 30z"/>
<path d="M885 6750 c3 -5 8 -10 11 -10 2 0 4 5 4 10 0 6 -5 10 -11 10 -5 0 -7
-4 -4 -10z"/>
<path d="M222 6670 c0 -14 2 -19 5 -12 2 6 2 18 0 25 -3 6 -5 1 -5 -13z"/>
<path d="M1840 5110 c0 -5 5 -10 11 -10 5 0 7 5 4 10 -3 6 -8 10 -11 10 -2 0
-4 -4 -4 -10z"/>
<path d="M8745 5070 c-11 -5 -39 -14 -62 -20 -29 -7 -52 -22 -70 -45 -19 -24
-36 -35 -55 -35 -30 0 -93 -31 -134 -66 -15 -13 -39 -24 -54 -24 -15 0 -44
-11 -64 -25 -20 -13 -48 -33 -63 -43 -92 -62 -159 -104 -245 -151 -47 -25 -77
-57 -78 -81 0 -8 16 -41 36 -73 28 -43 43 -57 61 -57 31 0 93 -26 93 -39 0 -5
21 -13 46 -17 34 -5 48 -12 54 -29 5 -12 16 -25 24 -28 9 -4 16 -13 16 -20 0
-17 75 -42 113 -38 67 6 104 35 98 74 0 4 4 7 9 7 6 0 10 -8 8 -17 -3 -19 20
-28 39 -15 7 4 10 17 7 29 -5 17 -12 21 -35 18 -33 -4 -59 16 -59 46 0 20 -15
26 -25 9 -4 -6 -1 -18 6 -26 14 -17 6 -29 -14 -21 -23 9 -9 56 19 63 21 5 22
9 12 28 -7 11 -12 24 -13 28 0 3 -4 10 -9 15 -5 4 -7 -4 -4 -19 3 -16 0 -29
-7 -32 -8 -3 -11 2 -8 15 7 24 -15 25 -33 2 -7 -10 -14 -13 -14 -7 0 7 21 28
46 49 43 36 45 39 39 77 -5 29 -2 51 11 79 16 38 19 39 53 33 62 -11 181 -74
187 -100 3 -13 21 -35 40 -49 33 -25 36 -26 59 -11 13 9 33 16 43 16 52 0 112
115 112 218 0 28 7 53 22 73 20 27 21 33 10 85 -7 34 -23 70 -42 95 -31 38
-33 39 -93 38 -34 0 -71 -4 -82 -9z m-391 -666 c22 -8 20 -24 -3 -24 -10 0
-21 7 -25 15 -6 16 3 19 28 9z"/>
<path d="M2040 4829 c0 -5 5 -7 10 -4 6 3 10 8 10 11 0 2 -4 4 -10 4 -5 0 -10
-5 -10 -11z"/>
<path d="M1960 4790 c0 -5 5 -10 10 -10 6 0 10 5 10 10 0 6 -4 10 -10 10 -5 0
-10 -4 -10 -10z"/>
<path d="M1997 4783 c-4 -3 -7 -11 -7 -16 0 -6 3 -7 7 -4 3 4 14 -4 23 -18
l17 -25 0 29 c0 17 -5 27 -10 24 -5 -3 -12 0 -16 6 -4 6 -10 8 -14 4z"/>
<path d="M1996 4738 c4 -6 9 -26 10 -42 1 -17 5 -42 9 -56 5 -20 4 -22 -5 -10
-20 27 0 -32 23 -64 l20 -28 -24 7 -24 7 22 -19 c13 -11 19 -24 15 -28 -4 -4
3 -2 15 6 12 7 24 22 27 32 5 21 -27 90 -38 80 -10 -10 -7 -18 15 -42 12 -12
19 -25 16 -27 -10 -10 -50 55 -52 83 -1 15 -5 37 -10 47 -6 13 -5 17 2 13 8
-5 8 2 0 23 -6 16 -15 30 -20 30 -4 0 -5 -5 -1 -12z"/>
<path d="M1841 4711 c-1 -13 -8 -29 -18 -36 -9 -7 -13 -17 -9 -23 21 -34 53
18 37 58 l-10 25 0 -24z"/>
<path d="M1911 4665 c-12 -35 -6 -109 9 -100 5 3 11 -1 13 -7 3 -8 6 -6 6 5 1
10 5 16 9 13 5 -3 9 13 10 35 2 24 -2 39 -9 39 -7 0 -9 9 -5 25 10 39 -18 31
-33 -10z"/>
<path d="M2042 4675 c0 -16 2 -22 5 -12 2 9 2 23 0 30 -3 6 -5 -1 -5 -18z"/>
<path d="M1760 4599 c0 -24 23 -21 28 4 2 10 -3 17 -12 17 -10 0 -16 -9 -16
-21z"/>
<path d="M2110 4533 c0 -6 8 -17 18 -24 16 -13 16 -13 2 6 -8 11 -16 22 -17
24 -2 2 -3 0 -3 -6z"/>
<path d="M2366 4488 c-11 -12 -16 -30 -13 -44 2 -14 1 -27 -4 -30 -12 -7 1
-34 16 -34 15 0 29 28 26 50 -2 13 -1 13 8 1 8 -12 13 -9 28 17 10 18 21 32
26 32 4 0 7 5 7 10 0 6 -3 9 -7 9 -5 -1 -10 -1 -13 1 -29 10 -59 6 -74 -12z"/>
<path d="M2151 4491 c-8 -6 -9 -11 -3 -15 6 -3 14 -1 17 5 9 14 2 20 -14 10z"/>
<path d="M8486 4458 c-11 -33 -16 -72 -9 -63 4 6 21 11 38 12 16 1 35 9 41 17
8 12 13 13 22 4 9 -9 12 -9 12 0 0 6 -11 19 -24 27 -19 13 -29 14 -45 6 -25
-14 -34 -14 -26 -1 3 6 4 10 0 10 -3 0 -7 -6 -9 -12z"/>
<path d="M8618 4433 c7 -3 16 -2 19 1 4 3 -2 6 -13 5 -11 0 -14 -3 -6 -6z"/>
<path d="M2130 4419 c0 -5 5 -7 10 -4 6 3 10 8 10 11 0 2 -4 4 -10 4 -5 0 -10
-5 -10 -11z"/>
<path d="M8007 4226 c-45 -46 -134 -106 -158 -106 -8 0 -34 -16 -59 -36 -24
-19 -59 -42 -77 -51 -19 -9 -71 -46 -116 -83 -79 -64 -82 -68 -79 -105 4 -43
84 -164 156 -234 l45 -44 123 -8 c116 -6 126 -5 173 17 55 25 175 129 175 151
0 7 9 22 19 32 36 36 43 63 47 189 5 132 -9 230 -33 245 -7 4 -13 16 -13 25 0
26 -37 44 -102 48 -58 4 -59 4 -101 -40z"/>
<path d="M1520 4104 c0 -8 5 -12 10 -9 6 3 10 10 10 16 0 5 -4 9 -10 9 -5 0
-10 -7 -10 -16z"/>
<path d="M5578 4072 c-10 -2 -18 -8 -18 -13 0 -11 11 -11 30 1 18 11 11 18
-12 12z"/>
<path d="M2282 4000 c0 -14 2 -19 5 -12 2 6 2 18 0 25 -3 6 -5 1 -5 -13z"/>
<path d="M2718 3983 c7 -3 16 -2 19 1 4 3 -2 6 -13 5 -11 0 -14 -3 -6 -6z"/>
<path d="M5800 3965 c0 -8 5 -15 10 -15 6 0 10 7 10 15 0 8 -4 15 -10 15 -5 0
-10 -7 -10 -15z"/>
<path d="M2275 3960 c3 -5 8 -10 11 -10 2 0 4 5 4 10 0 6 -5 10 -11 10 -5 0
-7 -4 -4 -10z"/>
<path d="M5932 3824 c-7 -8 -8 -14 -3 -14 10 0 25 19 20 25 -2 1 -10 -3 -17
-11z"/>
<path d="M1280 3740 c0 -6 7 -10 15 -10 8 0 15 2 15 4 0 2 -7 6 -15 10 -8 3
-15 1 -15 -4z"/>
<path d="M9076 3700 c-13 -27 -16 -44 -10 -48 6 -4 19 -21 29 -38 27 -46 84
-54 131 -19 24 18 34 34 34 53 0 15 3 38 5 52 3 14 3 19 -1 13 -6 -14 -85 -7
-95 9 -3 5 -21 11 -40 14 -32 5 -35 3 -53 -36z"/>
<path d="M1317 3713 c-4 -3 -7 -11 -7 -17 0 -6 5 -5 12 2 6 6 9 14 7 17 -3 3
-9 2 -12 -2z"/>
<path d="M1316 3659 c-11 -11 -17 -21 -14 -24 2 -3 13 4 23 15 24 26 16 33 -9
9z"/>
<path d="M1250 3621 c-13 -25 -13 -41 0 -41 6 0 10 7 10 15 0 9 7 18 15 21 8
4 12 10 9 15 -9 15 -23 10 -34 -10z"/>
<path d="M1161 3529 c-61 -68 -47 -71 19 -4 30 30 48 55 40 54 -8 -1 -35 -23
-59 -50z"/>
<path d="M3109 3113 c-6 -37 -4 -53 6 -53 14 0 24 28 18 48 -5 13 -22 17 -24
5z m21 -17 c0 -3 -4 -8 -10 -11 -5 -3 -10 -1 -10 4 0 6 5 11 10 11 6 0 10 -2
10 -4z"/>
<path d="M3140 3066 c0 -8 -10 -16 -21 -18 -12 -2 -27 -12 -33 -23 -6 -11 -15
-23 -20 -27 -6 -4 -5 -12 3 -21 8 -10 9 -17 1 -22 -5 -3 -10 -15 -10 -27 0
-17 2 -18 15 -8 10 8 19 9 28 3 57 -46 186 18 175 88 -3 23 -8 27 -70 53 -45
20 -68 20 -68 2z"/>
<path d="M2723 2667 c-40 -15 -39 -14 -47 -64 -5 -36 -3 -44 14 -53 16 -9 26
-4 60 30 45 45 47 50 21 50 -14 0 -17 6 -13 25 2 14 3 25 1 24 -2 0 -18 -6
-36 -12z"/>
<path d="M1235 2138 c-8 -13 -15 -41 -15 -65 0 -23 -4 -45 -10 -48 -14 -9 -12
-96 3 -125 7 -14 22 -49 32 -78 11 -29 36 -71 57 -95 21 -23 46 -55 55 -72 8
-16 25 -37 37 -46 11 -9 38 -33 59 -53 21 -20 45 -36 53 -36 8 0 14 -4 14 -9
0 -7 35 -25 73 -36 4 -1 8 -3 10 -5 1 -1 28 -4 60 -7 51 -4 64 -1 98 21 21 15
39 30 39 34 0 5 16 14 35 22 19 8 35 18 35 22 0 5 8 12 18 16 35 14 132 95
152 127 37 60 23 92 -85 180 -82 67 -106 78 -161 76 -28 -1 -47 5 -64 19 -12
11 -34 20 -47 20 -12 0 -31 8 -41 18 -10 10 -49 26 -87 37 -38 10 -84 29 -103
42 -19 12 -44 23 -55 23 -11 0 -28 6 -36 14 -9 7 -37 16 -63 19 -41 6 -49 4
-63 -15z"/>
<path d="M4870 2083 c-21 -8 -70 -55 -70 -67 0 -6 -18 -36 -41 -69 -37 -52
-40 -62 -35 -100 3 -23 9 -73 12 -112 7 -68 27 -114 50 -115 7 0 19 -15 28
-34 9 -19 26 -38 39 -42 12 -4 34 -15 50 -26 31 -22 130 -36 149 -21 7 6 31
16 53 22 41 13 86 32 95 41 3 3 16 11 31 18 14 7 46 31 72 53 45 39 47 43 47
94 0 47 -3 56 -27 72 -14 10 -46 37 -70 61 -24 23 -48 42 -53 42 -5 0 -28 21
-52 46 -93 100 -215 160 -278 137z"/>
<path d="M5133 1305 c-30 -21 -58 -119 -44 -154 6 -14 11 -39 10 -56 -1 -62
22 -150 47 -176 13 -14 24 -31 24 -38 0 -15 75 -91 90 -91 6 0 21 -9 33 -21
34 -32 66 -41 126 -33 87 10 114 29 176 123 30 47 55 87 56 90 6 44 1 59 -36
110 -27 37 -55 62 -76 70 -77 29 -137 63 -167 95 -40 42 -144 96 -186 96 -18
0 -41 -7 -53 -15z"/>
<path d="M217 1265 c-69 -19 -90 -37 -105 -88 -13 -44 -13 -49 15 -104 42 -85
47 -93 58 -93 6 0 26 -14 44 -31 40 -36 59 -44 140 -59 87 -16 159 -4 192 31
35 38 50 97 37 149 -9 36 -37 68 -104 120 -34 26 -141 69 -204 83 -14 2 -47
-1 -73 -8z"/>
<path d="M8700 1170 c-53 -6 -96 -31 -205 -119 -44 -35 -82 -66 -83 -67 -2 -1
-8 -21 -13 -43 -11 -50 10 -102 49 -119 15 -7 40 -20 56 -29 18 -9 64 -18 116
-21 81 -4 90 -3 134 23 26 15 55 39 64 54 9 14 19 28 22 31 9 9 30 76 30 97 0
20 -19 74 -43 121 -6 13 -27 36 -47 51 -30 23 -42 26 -80 21z"/>
<path d="M1635 550 c-11 -11 -42 -41 -68 -67 -68 -67 -72 -76 -43 -110 21 -24
32 -28 96 -31 97 -6 136 14 142 72 3 25 -1 50 -10 64 -8 12 -18 37 -21 55 -6
28 -11 32 -41 35 -24 2 -41 -4 -55 -18z"/>
<path d="M0 145 l0 -145 4517 0 c2484 0 4514 2 4512 5 -3 2 -133 7 -290 11
-156 3 -313 11 -349 18 -36 6 -82 9 -103 5 -20 -3 -70 0 -110 7 -53 9 -94 10
-155 2 -57 -7 -104 -6 -145 1 -61 10 -499 7 -516 -3 -5 -3 -28 1 -52 9 -31 11
-80 15 -174 14 -117 -1 -457 4 -930 14 -93 2 -198 9 -232 16 -44 8 -74 9 -107
1 -46 -10 -278 -6 -297 5 -5 4 -25 1 -45 -5 -26 -9 -47 -9 -82 -1 -28 7 -210
14 -447 17 -618 9 -678 11 -708 23 -31 12 -160 14 -222 3 -25 -5 -59 -2 -90 6
-32 9 -73 11 -115 7 -36 -3 -74 -6 -85 -6 -11 0 -47 0 -80 0 -33 -1 -67 -1
-75 0 -98 7 -130 11 -159 20 -25 8 -58 7 -124 -4 -63 -10 -102 -12 -131 -5
-23 5 -111 8 -196 6 -88 -1 -166 2 -180 8 -25 10 -75 11 -452 15 -114 1 -222
7 -240 12 -18 6 -112 13 -208 16 -150 5 -178 8 -199 24 -25 20 -115 27 -125
11 -3 -5 -38 -7 -78 -6 -40 2 -124 -2 -186 -8 -85 -8 -124 -7 -160 2 -44 11
-496 26 -602 19 -99 -6 -393 8 -537 25 l-43 6 0 -145z"/>
</g>
</svg>
